<svg id="Layer_1" data-name="Layer 1" xmlns="http://www.w3.org/2000/svg" viewBox="0 0 799.34 449.23"><defs><style>.cls-1{fill:#d2e0ff;}.cls-2{fill:#8c9df4;}.cls-3{fill:#bbd0ff;}.cls-4{fill:#1c468a;}.cls-5{fill:#ebf3fa;}.cls-6{fill:#7c9af2;}.cls-7{fill:#d66741;}.cls-8{fill:#f77d48;}.cls-9{fill:#ffa561;}.cls-10{fill:#e9f3ff;}.cls-11{fill:#243f66;}.cls-12,.cls-22{fill:#e28140;}.cls-13{fill:#ffb27d;}.cls-14{fill:#ed975d;}.cls-15{fill:#163560;}.cls-16{fill:#fff;}.cls-17{fill:#6980e2;}.cls-18{fill:#4c62bf;}.cls-19{fill:#ed985f;}.cls-20{fill:#233862;}.cls-21{fill:#2b478b;}.cls-22{opacity:0.5;}.cls-23{fill:#ed8d4c;}.cls-24{fill:#a8d29f;}</style></defs><path class="cls-1" d="M593.9,603.25l-.06-.13a.73.73,0,0,1-.07-.2c-.25-.54-102.55-150.94,56.48-255.65,62.22-41-3.9-68,45.58-113.61,56.86-52.41,118.92,5.57,182.15-18.2,11.17-4.2,22.38-11,33.61-21.31a130,130,0,0,1,37.87-24c19-8,39.68-12.18,60.73-13.61,70.65-4.75,150.16,21.95,191.2,61,8.25,7.86,45.82,48.51,16.21,104.4-18.7,35.28,59.62,69,87.46,109.27,47.15,68.26,32,121.77,16.37,150.27-2,3.62-4,6.84-5.83,9.63a127.62,127.62,0,0,1-10.08,13.08S594.09,603.79,593.9,603.25Z" transform="translate(-552.66 -156)"/><path class="cls-2" d="M1084,359.75s17-71.86,74.15-79.77c0,0,11.13-1.36,14.83,10.89s-18.42,12.35-32.09,17.27S1095.33,334,1084,359.75Z" transform="translate(-552.66 -156)"/><path class="cls-2" d="M1082.71,346.3s-6-59.53,35.79-80.65c0,0,8.17-4,14.24,4.43s-10.86,14.31-20,21.69S1084.59,323.56,1082.71,346.3Z" transform="translate(-552.66 -156)"/><path class="cls-3" d="M1035.66,353s40.51-11.48,30.32-42.62c0,0-9.37-19.87-22.64-27.57,0,0-2,42.33-9.89,41.46s5.67-47,5.67-47-33.32-27.09-48.43-29.19c0,0,13.91,45.12,6.51,42.35s-24.05-49.05-24.05-49.05-36.89-16.36-48.54,5-4.38,35.22,1,38S967.79,295.49,965.7,300s-28.69,6.25-41.48-1.33c0,0,6.26,41.28,26.73,44.15s29.62-8,42.24-6,20.87,7.5,13.88,9.36-27.42-5.39-39.46.73-21.39,9.43-3.71,17.67,51.59,13.83,61.68,1.12Z" transform="translate(-552.66 -156)"/><path class="cls-3" d="M940.53,257.76S1032.86,314,1035.66,353c0,0-4.34,16.09,1.23,37.06l-1.71,7.15s-4.68-26.81-9.6-31.51C1025.58,365.68,1055.48,339.58,940.53,257.76Z" transform="translate(-552.66 -156)"/><path class="cls-3" d="M1036.89,390s9.84,27.11-5.77,53.54l-3.71-2s11.35-30.5,7-48.23S1036.89,390,1036.89,390Z" transform="translate(-552.66 -156)"/><path class="cls-2" d="M725.62,471.36s13.57-36.65-14.82-43.8c0,0-19.67-2.36-32.52,4.13,0,0,30,21.93,25.05,27.54s-31.41-27-31.41-27-38,12.57-47.72,23.17c0,0,40.67,11,34.62,15.37s-49.06-5.13-49.06-5.13-32,20.47-22.67,39.71,23.48,20.31,28.45,17.52,31-27.07,33.22-23.29-11,25-23.5,31.22c0,0,33.7,15,46.92.71s10.18-26.62,18.5-35.34,16.84-12.43,14.41-6.17-18.85,18.47-20.89,30.66-4.7,21,10.95,11.36,38.17-33,34.32-46.84Z" transform="translate(-552.66 -156)"/><path class="cls-2" d="M604.07,498.61s91.45-43.84,121.55-27.25c0,0,10,12.33,3.85,13.85C729.47,485.21,726.54,449.69,604.07,498.61Z" transform="translate(-552.66 -156)"/><rect class="cls-4" x="138.59" y="165.19" width="482.6" height="281.92"/><path class="cls-5" d="M936.05,604.12V329.81s-59.6-28.61-138.34-8-93,8-93,8v273.3Z" transform="translate(-552.66 -156)"/><path class="cls-5" d="M935.33,604.12V329.81s59.6-28.61,138.34-8,93,8,93,8v273.3Z" transform="translate(-552.66 -156)"/><polygon class="cls-6" points="465.86 222.78 470.71 223.41 467.26 226.88 468.15 231.68 463.79 229.47 459.5 231.81 460.25 226.98 456.7 223.62 461.53 222.84 463.63 218.43 465.86 222.78"/><polygon class="cls-6" points="484.67 222.78 489.52 223.41 486.07 226.88 486.97 231.68 482.61 229.47 478.31 231.81 479.07 226.98 475.52 223.62 480.34 222.84 482.44 218.43 484.67 222.78"/><polygon class="cls-6" points="503.48 222.78 508.33 223.41 504.88 226.88 505.78 231.68 501.42 229.47 497.12 231.81 497.88 226.98 494.33 223.62 499.16 222.84 501.26 218.43 503.48 222.78"/><polygon class="cls-6" points="522.3 222.78 527.15 223.41 523.7 226.88 524.59 231.68 520.23 229.47 515.94 231.81 516.69 226.98 513.14 223.62 517.97 222.84 520.07 218.43 522.3 222.78"/><polygon class="cls-6" points="541.11 222.78 545.96 223.41 542.51 226.88 543.4 231.68 539.04 229.47 534.75 231.81 535.5 226.98 531.95 223.62 536.78 222.84 538.88 218.43 541.11 222.78"/><polygon class="cls-6" points="465.86 329.18 470.71 329.81 467.26 333.27 468.15 338.08 463.79 335.87 459.5 338.21 460.25 333.38 456.7 330.01 461.53 329.24 463.63 324.82 465.86 329.18"/><polygon class="cls-6" points="484.67 329.18 489.52 329.81 486.07 333.27 486.97 338.08 482.61 335.87 478.31 338.21 479.07 333.38 475.52 330.01 480.34 329.24 482.44 324.82 484.67 329.18"/><polygon class="cls-6" points="503.48 329.18 508.33 329.81 504.88 333.27 505.78 338.08 501.42 335.87 497.12 338.21 497.88 333.38 494.33 330.01 499.16 329.24 501.26 324.82 503.48 329.18"/><polygon class="cls-6" points="522.3 329.18 527.15 329.81 523.7 333.27 524.59 338.08 520.23 335.87 515.94 338.21 516.69 333.38 513.14 330.01 517.97 329.24 520.07 324.82 522.3 329.18"/><polygon class="cls-6" points="541.11 329.18 545.96 329.81 542.51 333.27 543.4 338.08 539.04 335.87 534.75 338.21 535.5 333.38 531.95 330.01 536.78 329.24 538.88 324.82 541.11 329.18"/><rect class="cls-6" x="455.03" y="248.73" width="92.61" height="3.18"/><rect class="cls-6" x="442.04" y="274.17" width="37.96" height="3.18"/><rect class="cls-6" x="488.34" y="274.17" width="30.15" height="3.18"/><rect class="cls-6" x="523.81" y="274.17" width="36.82" height="3.18"/><rect class="cls-6" x="436.05" y="261.45" width="59.47" height="3.18"/><rect class="cls-6" x="507.15" y="261.45" width="59.47" height="3.18"/><rect class="cls-6" x="455.03" y="285.98" width="92.61" height="3.18"/><rect class="cls-6" x="442.04" y="353.88" width="37.96" height="3.18"/><rect class="cls-6" x="488.34" y="353.88" width="30.15" height="3.18"/><rect class="cls-6" x="523.81" y="353.88" width="36.82" height="3.18"/><rect class="cls-6" x="455.03" y="365.69" width="92.61" height="3.18"/><rect class="cls-6" x="442.04" y="390.22" width="37.96" height="3.18"/><rect class="cls-6" x="488.34" y="390.22" width="30.15" height="3.18"/><rect class="cls-6" x="523.81" y="390.22" width="36.82" height="3.18"/><rect class="cls-6" x="436.05" y="377.5" width="59.47" height="3.18"/><rect class="cls-6" x="507.15" y="377.5" width="59.47" height="3.18"/><polygon class="cls-6" points="232.24 312.66 237.09 313.29 233.64 316.76 234.54 321.56 230.18 319.35 225.88 321.69 226.64 316.86 223.09 313.5 227.91 312.73 230.01 308.31 232.24 312.66"/><polygon class="cls-6" points="251.06 312.66 255.9 313.29 252.45 316.76 253.35 321.56 248.99 319.35 244.69 321.69 245.45 316.86 241.9 313.5 246.73 312.73 248.83 308.31 251.06 312.66"/><polygon class="cls-6" points="269.87 312.66 274.72 313.29 271.27 316.76 272.16 321.56 267.8 319.35 263.51 321.69 264.26 316.86 260.71 313.5 265.54 312.73 267.64 308.31 269.87 312.66"/><polygon class="cls-6" points="288.68 312.66 293.53 313.29 290.08 316.76 290.98 321.56 286.62 319.35 282.32 321.69 283.08 316.86 279.52 313.5 284.35 312.73 286.45 308.31 288.68 312.66"/><polygon class="cls-6" points="307.49 312.66 312.34 313.29 308.89 316.76 309.79 321.56 305.43 319.35 301.13 321.69 301.89 316.86 298.34 313.5 303.17 312.73 305.26 308.31 307.49 312.66"/><path class="cls-7" d="M767.46,305s12.68.73,13.59,16.17H752.28l3.63-13Z" transform="translate(-552.66 -156)"/><rect class="cls-6" x="223.9" y="341.99" width="28.04" height="3.18"/><rect class="cls-6" x="258.12" y="341.99" width="22.27" height="3.18"/><rect class="cls-6" x="284.32" y="341.99" width="27.2" height="3.18"/><rect class="cls-6" x="233.5" y="353.8" width="68.43" height="3.18"/><rect class="cls-6" x="223.9" y="378.33" width="28.04" height="3.18"/><rect class="cls-6" x="258.12" y="378.33" width="22.27" height="3.18"/><rect class="cls-6" x="284.32" y="378.33" width="27.2" height="3.18"/><rect class="cls-6" x="219.48" y="365.61" width="43.94" height="3.18"/><rect class="cls-6" x="272.01" y="365.61" width="43.94" height="3.18"/><rect class="cls-6" x="215.81" y="393.03" width="33.23" height="3.18"/><rect class="cls-6" x="256.34" y="393.03" width="26.39" height="3.18"/><rect class="cls-6" x="287.39" y="393.03" width="32.23" height="3.18"/><rect class="cls-6" x="227.18" y="404.84" width="81.07" height="3.18"/><path class="cls-8" d="M767.46,305s-23.63-3.61-30.89,9.32,5,50.41-5.45,73.47c0,0,8.83-.19,11.76-2.41l1.12,8.68a24.15,24.15,0,0,0,12.72-15.75c2.83-11.51-1.21-58.15,1.41-64.81A15.17,15.17,0,0,1,767.46,305Z" transform="translate(-552.66 -156)"/><path class="cls-9" d="M942.17,422.26s-20.47-38-55.74-46.55-42.95,19.9-76.09,7.43-56.91,10.45-44.18,37.61,36.69,39.77,72.17,23.39,29.78,12.47,57.53,2.77S920,409.68,942.17,422.26Z" transform="translate(-552.66 -156)"/><path class="cls-10" d="M850.49,399.48a9.64,9.64,0,0,1,14.33-10.6l-1.6,3.3a6.31,6.31,0,0,0-5.06-.73,5.42,5.42,0,0,0-3.61,6.93c.82,3,3.59,5,6.62,4.15a6.61,6.61,0,0,0,4.07-3.32l3.19,2a9.74,9.74,0,0,1-17.94-1.7Z" transform="translate(-552.66 -156)"/><path class="cls-10" d="M785.88,421.47a10.12,10.12,0,0,1-5.76.58,9.68,9.68,0,1,1,11.54-7.73,9.48,9.48,0,0,1-2.59,5l1.6,1.95-3.1,2.39Zm-2.52-3.2-2.53-3.1,3.11-2.42,2.52,3.28a6.32,6.32,0,0,0,1-2.48,5.68,5.68,0,0,0-4.52-6.8,5.61,5.61,0,0,0-6.58,4.78,5.69,5.69,0,0,0,4.53,6.8A6.13,6.13,0,0,0,783.36,418.27Z" transform="translate(-552.66 -156)"/><path class="cls-10" d="M797.22,419.81l8.33-.64a7.29,7.29,0,0,1,5.45,1.45,5.77,5.77,0,0,1,1.88,4.09,5.66,5.66,0,0,1-3.47,6l4.94,6.17-4.68.36-4.4-5.53-3.1.23.45,5.83-4,.31ZM806,428c1.95-.15,3-1.27,2.87-2.86s-1.39-2.51-3.34-2.36l-4,.3.4,5.23Z" transform="translate(-552.66 -156)"/><path class="cls-4" d="M797.41,394.6l3.09.92.08,9.67,5.58-8,2.47.73.29,9.78,5.35-8.06,3,.89-8.39,11.86-2.5-.74-.42-9.45-5.5,7.69-2.5-.74Z" transform="translate(-552.66 -156)"/><path class="cls-10" d="M883.62,422.14l2.94-1.33,6.38,7.27-1-9.73,2.35-1.06,6.62,7.21-1.23-9.6,2.86-1.29,1.41,14.46-2.38,1.07-6.49-6.87.87,9.41-2.38,1.08Z" transform="translate(-552.66 -156)"/><path class="cls-4" d="M847.78,418.69a6.38,6.38,0,1,1,8.2,3.42A6.21,6.21,0,0,1,847.78,418.69Zm9.29-3.69a3.65,3.65,0,0,0-4.77-2.16,3.6,3.6,0,0,0-1.95,4.83,3.65,3.65,0,0,0,4.77,2.17A3.61,3.61,0,0,0,857.07,415Z" transform="translate(-552.66 -156)"/><path class="cls-10" d="M867,409.59l3.92,1-1.87,7,7.21,1.92,1.88-7,3.91,1-4.73,17.79-3.91-1,1.89-7.14-7.21-1.92-1.9,7.14-3.92-1Z" transform="translate(-552.66 -156)"/><path class="cls-10" d="M822.33,413.61l-5.55.17-.12-3.7,15.14-.47.11,3.71-5.56.17.45,14.56-4,.12Z" transform="translate(-552.66 -156)"/><path class="cls-10" d="M825.92,394.32l3.39-1.55,8.15,8.16-.85-11.5,3.31-1.51.79,16.64L838,405.8Z" transform="translate(-552.66 -156)"/><path class="cls-10" d="M872.18,397.76l5.87-3.46.9,1.53-4.17,2.45.93,1.58,3.67-2.16.89,1.52-3.67,2.16,1,1.64,4.23-2.49.9,1.52-5.93,3.49Z" transform="translate(-552.66 -156)"/><path class="cls-4" d="M834.18,431.4l-1.6-12.65,4.14,1.94.8,8.26,6.94-4.62,4,1.89L837.75,433l-3,6.41-3.54-1.66Z" transform="translate(-552.66 -156)"/><path class="cls-4" d="M894,390.58l12.85,6-1.57,3.37-9.14-4.25-1.67,3.59,8,3.75-1.57,3.37-8-3.74-3,6.53-3.72-1.73Z" transform="translate(-552.66 -156)"/><path class="cls-11" d="M937.07,604h22.3c1.6-1.09-.43-11.68-.43-11.68s-6.08-2.31-7.14,2.39-7.75,6.18-11.29,6.75C938.08,601.84,937.32,603.17,937.07,604Z" transform="translate(-552.66 -156)"/><path class="cls-9" d="M940.76,486.37,951.17,594.5s2.18,3.36,9.1,1.09a198.16,198.16,0,0,0,6.94-37.4c0-.33,0-.66.07-1C967.81,550,968.44,540,969,530c1.08-18.07,2-35.86,2-35.86Z" transform="translate(-552.66 -156)"/><path class="cls-12" d="M954.18,507.06s3.57,24.08,4.8,31.4c2.63,15.58,8.23,19.73,8.23,19.73,0-.33,0-.66.07-1C967.81,550,968.44,540,969,530Z" transform="translate(-552.66 -156)"/><path class="cls-13" d="M903.85,457.57s-2.07-2.51-3.18-2.86-3.26-2-3.54-1.33,1.44,1.74,1.35,2.53c0,.34-1.37.36-2.85.34-1.88,0-4.16-1-4.24-.57-.31,1.67,2.15,4.71,4.7,5,2.06.21,4.93-.21,8.36.15C905.65,461,903.85,457.57,903.85,457.57Z" transform="translate(-552.66 -156)"/><path class="cls-2" d="M902.43,461.25c.07.21,7.49,1.45,13.9,2.35,3.78.53,7.21.94,8.6,1,3,0,8.8-1,15.63-3.87A66.12,66.12,0,0,0,952.67,454c3.67-2.55,3.78-4.55,6.83-8.64,9.46-12.71-3-18.08-9.81-15.64-4.73,1.69-7.6,4.56-10.16,8.45-3,4.6-5.51,9.73-13.06,14.15-5.69,3.34-22.64,4.26-22.64,4.26a3.49,3.49,0,0,0-1.25,2A10.33,10.33,0,0,0,902.43,461.25Z" transform="translate(-552.66 -156)"/><path class="cls-11" d="M970.14,604h22.3c1.6-1.09-.43-11.68-.43-11.68s-6.08-2.31-7.14,2.39-7.75,6.18-11.29,6.75C971.15,601.84,970.39,603.17,970.14,604Z" transform="translate(-552.66 -156)"/><path class="cls-9" d="M949.13,491.59,982.9,595s7.18,1.92,10.86-2c0,0-.85-36.44-5.46-48.88-3.73-10.07-1.92-64.42-18.45-64.89S949.13,491.59,949.13,491.59Z" transform="translate(-552.66 -156)"/><path class="cls-2" d="M941.4,492.25c5.21,2.69,12,4.57,23.13,3.85,10.72-.7,17.27-3.64,16.94-6.21-.17-1.27-.33-2.59-.47-4a99.19,99.19,0,0,1,.38-23c.32-2.62.72-5.4,1.06-7.82h0a57.49,57.49,0,0,0,.71-6.26s-3.4-15.25-5.94-17.7a10.94,10.94,0,0,0-3.86-2.19h0c-7.67-2.76-21.76-2.14-28,3.26-.85.73-3.86,5.82-3.94,11.31C941.3,451.18,938,490.51,941.4,492.25Z" transform="translate(-552.66 -156)"/><path class="cls-13" d="M967.91,428.4c.77-1-1.4-2.79-.43-9.88,0-.1-.69,0-1.75.29-3.16.75-9.52,2.55-9.8,2.63h0s-.07,1.49-.34,4.16c0,.24,0,.49-.07.74s0,.65-.1,1C954.65,432.67,964.31,432.94,967.91,428.4Z" transform="translate(-552.66 -156)"/><path class="cls-14" d="M955.58,425.6c4.72,1.09,11.76-5.88,11.76-5.88a7.61,7.61,0,0,0-1.61-.91c-3.16.75-9.52,2.55-9.8,2.63h0S955.85,422.93,955.58,425.6Z" transform="translate(-552.66 -156)"/><path class="cls-13" d="M954,421.06a23.7,23.7,0,0,0,4.41,1c3.62.49,8.37.2,9.87-4.18,2.51-7.36,5.73-11.78-1.68-14.78-4-1.61-6.5-1.7-8.22-1.08a6,6,0,0,0-3,2.63C953.88,406.94,951,419.77,954,421.06Z" transform="translate(-552.66 -156)"/><path class="cls-15" d="M955.61,398.55a4.12,4.12,0,0,0,2.46,7.17,12.14,12.14,0,0,1,3.48.42c1.84.82,2.17,3.9,2.2,4.88s.17,1.81,2.67,1.23a1.22,1.22,0,0,1,.91.05c1,.62-.29,3.6-.69,4.25,0,0-.58,2.13.7,3.17.15.13,2.66,1.22,8.71-8a8.61,8.61,0,0,0,.39-7.87c-1.47-3.15-7.49-6.6-12.79-7.81C960.38,395.27,957.63,396.72,955.61,398.55Z" transform="translate(-552.66 -156)"/><path class="cls-16" d="M953.92,416.31s-.15.95,2.07,1.71c0,0,1.86.64,2.2-.34A6.3,6.3,0,0,0,953.92,416.31Z" transform="translate(-552.66 -156)"/><path class="cls-17" d="M916.33,463.6c3.78.53,7.21.94,8.6,1,3,0,8.8-1,15.63-3.87.28-1,.56-7.06,0-7.47-1.81-1.25-5.41,5.78-11.45,7.6A102.23,102.23,0,0,1,916.33,463.6Z" transform="translate(-552.66 -156)"/><path class="cls-17" d="M979,486.44a1.85,1.85,0,0,0,2-.51,99.19,99.19,0,0,1,.38-23c.32-2.62.72-5.4,1.06-7.82h0s-5.05-4.35-6.79-.76,3.22,13.13.5,18.83S976,485.58,979,486.44Z" transform="translate(-552.66 -156)"/><path class="cls-13" d="M986.58,483.08s-2.73,2-3.43,1.87c-2-.35-3.12-2-5-1.86s-5.94,2.29-5.47,2.78c1.69,1.77,4.3.81,5.53,1.89.85.76,1.37,2.32,4.46,2a11.86,11.86,0,0,0,5.84-2.86Z" transform="translate(-552.66 -156)"/><path class="cls-2" d="M973.33,429a41.92,41.92,0,0,1,20.43,15c8.5,11.71,11.25,19.62,7.91,25.47s-9.85,16.2-16.17,20.56c0,0-3.16-.67-2.91-5.5,0,0,7.75-16.54,7.47-18.78-.52-4.16-11.56-14.72-14-16.89S973.33,429,973.33,429Z" transform="translate(-552.66 -156)"/><path class="cls-13" d="M981.86,484.72A21.84,21.84,0,0,1,980.3,482c-.19-.62-.5.32-.37,1a2.44,2.44,0,0,1,0,1.15Z" transform="translate(-552.66 -156)"/><path class="cls-9" d="M1081.77,240.58l-1.91-.83a4,4,0,0,1-2.09-5.31l7-16a4,4,0,0,1,5.31-2.09l2.74,1.19a.78.78,0,0,1,.4,1,.77.77,0,0,1-1,.4l-2.74-1.19a2.46,2.46,0,0,0-3.23,1.28l-7,16a2.46,2.46,0,0,0,1.27,3.23l1.91.83a2.46,2.46,0,0,0,3.23-1.27l4.63-10.64a.79.79,0,0,1,1.45.62l-4.63,10.65A4,4,0,0,1,1081.77,240.58Z" transform="translate(-552.66 -156)"/><path class="cls-9" d="M1075.47,257.32l-3.43-1.49a6.54,6.54,0,0,1-3.08-8.69l10.49-24.1a.79.79,0,0,1,1.45.63l-10.49,24.1a5,5,0,0,0,2.26,6.61l3.43,1.49a5,5,0,0,0,6.38-2.85l11.94-27.46a5,5,0,0,0-2.26-6.61.77.77,0,0,1-.41-1,.78.78,0,0,1,1-.41,6.51,6.51,0,0,1,3.07,8.68l-11.94,27.46A6.54,6.54,0,0,1,1075.47,257.32Z" transform="translate(-552.66 -156)"/><path class="cls-2" d="M647.18,405.28l1-1.81a4,4,0,0,1,5.49-1.55l15.25,8.56a4,4,0,0,1,1.54,5.49l-1.46,2.6a.78.78,0,0,1-1.07.3.79.79,0,0,1-.31-1.07l1.46-2.6a2.46,2.46,0,0,0-.94-3.35l-15.24-8.55a2.46,2.46,0,0,0-3.34.94l-1,1.82a2.45,2.45,0,0,0,.94,3.34l10.12,5.68a.79.79,0,1,1-.78,1.37l-10.12-5.67A4,4,0,0,1,647.18,405.28Z" transform="translate(-552.66 -156)"/><path class="cls-2" d="M631.16,397.33l1.83-3.26a6.54,6.54,0,0,1,9-2.19l22.92,12.86a.79.79,0,0,1-.77,1.38l-22.92-12.86a5,5,0,0,0-6.81,1.58l-1.82,3.26a5,5,0,0,0,2.19,6.63l26.11,14.65a5,5,0,0,0,6.8-1.58.79.79,0,0,1,1.38.77,6.52,6.52,0,0,1-8.95,2.19L634,406.11A6.53,6.53,0,0,1,631.16,397.33Z" transform="translate(-552.66 -156)"/><g id="girl_2" data-name="girl 2"><path class="cls-18" d="M699.08,486.49s-8.07-1.6-17.06,8.39c-6.24,6.93,3.44,10.76-6.19,20.32-11.31,11.23-8.43,26.1,1,27.6,8.25,1.31,22.16-10.08,27.41-10.37,10.8-.59,16.22-7.52,6.06-18.39-3-3.26,1.81-8.65.81-16.31C710.45,492.48,706.77,486.72,699.08,486.49Z" transform="translate(-552.66 -156)"/><path class="cls-19" d="M706.2,523.61s20.56,9,24.66,8.79,29.4-7.7,29.4-7.7l-.65,4.35s-19.51,11.22-26.34,11.86-29.69-6-31.9-7.44S699.75,525,706.2,523.61Z" transform="translate(-552.66 -156)"/><path class="cls-13" d="M706.89,533.49a21.77,21.77,0,0,1-7.6,3.23c-11.71,2.71-16.2-7.2-17.89-14a9.92,9.92,0,0,1,4-1.22c.85-.1,1.74-.17,2.47-.21,1.32-1,3.28-5.13,3.71-11.53l.55.15,9.24,2.52s-.42,2.94-.63,5.71c-.16,2.17-.19,4.25.22,4.76.73.15,1.16.26,1.16.26h0A58.51,58.51,0,0,1,706.89,533.49Z" transform="translate(-552.66 -156)"/><path class="cls-19" d="M701.34,512.45s-.42,2.93-.63,5.71c-5.23-.53-7.66-5.51-8.61-8.24Z" transform="translate(-552.66 -156)"/><path class="cls-13" d="M702.9,515.2s-12.42-.68-11.87-8.41-.69-13,7.26-12.91,9.28,3.17,9.73,5.79S706.15,515.18,702.9,515.2Z" transform="translate(-552.66 -156)"/><path class="cls-18" d="M708,495.35c-1.75-2.46-3.24-2.06-4.1-1.42a8.69,8.69,0,0,0-11.27,1,14.81,14.81,0,0,1-5.46,8.37s2.16,1.56,7.47.59a8.83,8.83,0,0,0,4.43-2.61,28.79,28.79,0,0,1-5.42,5.73c6.44-2.43,9.56-10.91,9.87-11.81a9.77,9.77,0,0,1,2.45,3.8c.48,2,2.53,5.16,3.72,5.1C709.65,504.09,710.58,499,708,495.35Z" transform="translate(-552.66 -156)"/><path class="cls-2" d="M677.86,558.73c-1.12-5.73-4.78-28.63-1.12-36,1.31-2.65,6.47-2.89,12.12-2.66,1.76,1.14,8.46,5.43,11.22,4.89l.15,0c1.3-.33,1.79-1.24.7-2a24.92,24.92,0,0,1,6.28.38c2,.37,7.26,3.11,7.26,3.11s-2.66,4.82-6.6,6.49c.67,6-.32,8.62-6.53,22.44-5.25,11.68.71,22.2.71,22.2s-30.88,24.83-31,12.19C670.87,580.2,679.3,566.06,677.86,558.73Z" transform="translate(-552.66 -156)"/><path class="cls-12" d="M703.58,604.53a5.74,5.74,0,0,0,4.13-2.52c.15-.22.31-.46.47-.72,3.52-5.32,4.89-21.61,12.79-39,1.93-4.23,8.84-5,10.73-9.77,0,0,4.64-15.48-8.88-15.94s-36.21,43.09-36.57,47.65S677.32,607.49,703.58,604.53Z" transform="translate(-552.66 -156)"/><path class="cls-20" d="M757.31,604.17H738.07s-.72-3.07.54-5.16c1.12-1.85.69-2.9-.14-4.43a7.44,7.44,0,0,0,3.24.61,6.73,6.73,0,0,0,2.86-1,70.57,70.57,0,0,0,5.49,5.76C751.31,600.85,756.92,600.53,757.31,604.17Z" transform="translate(-552.66 -156)"/><path class="cls-17" d="M679.89,528.73s-2.5,22.78,13.74,27.56,20.85-21,7.74-22.82A126.25,126.25,0,0,1,679.89,528.73Z" transform="translate(-552.66 -156)"/><path class="cls-12" d="M732.14,541.09c1.15,8.68,5.68,36.1,13.66,49.47,2.57,4.32-6.48,6.73-6.53,6.72-1.22-.32-3.24-2.25-4.17-3.09-6.48-5.84-19.64-22.38-19.64-35.64,0-6.46-.11-18.8,4.59-21.94C723,534.68,731.68,537.64,732.14,541.09Z" transform="translate(-552.66 -156)"/><path class="cls-9" d="M692.1,604.17s.72-1,2-2.88c1.48-2.24,3.12-6.65,5.1-12.3,2.09-5.94,4.57-13.24,7.66-20.84,1-2.34,2-4.72,3-7.09,1.92-4.22,7.22-3.64,9.11-8.42,0,0,7.35-16.56-6.17-17s-39.2,44.31-40.68,48.64C670.51,589,662.63,608.72,692.1,604.17Z" transform="translate(-552.66 -156)"/><path class="cls-21" d="M743.18,604.17H723.94s-.72-3.07.55-5.16c1.11-1.85.69-2.9-.14-4.43a7.44,7.44,0,0,0,3.24.61,6.77,6.77,0,0,0,2.86-1,70.43,70.43,0,0,0,5.48,5.76C737.19,600.85,742.8,600.53,743.18,604.17Z" transform="translate(-552.66 -156)"/><path class="cls-22" d="M699.16,589c2.09-5.94,4.57-13.24,7.66-20.84-.81-5.75-2.55-10.79-5.48-12.82C701.34,555.33,694.23,577.36,699.16,589Z" transform="translate(-552.66 -156)"/><path class="cls-9" d="M720.9,540.47c1.16,8.69,2.79,36.72,10.78,50.09,2.57,4.32-6.49,6.73-6.54,6.72-1.21-.32-3.23-2.25-4.17-3.09-6.48-5.84-19.63-22.38-19.63-35.64,0-6.46,7.59-18.29,12.29-21.42A4.72,4.72,0,0,1,720.9,540.47Z" transform="translate(-552.66 -156)"/><path class="cls-16" d="M705.23,510.76s-1.18-.47-4.48-.2c0,0,.18,1.29,2.61,1.42A2,2,0,0,0,705.23,510.76Z" transform="translate(-552.66 -156)"/><polygon class="cls-15" points="210.01 359.59 206.02 352.4 197.39 376.48 202.48 381.94 210.01 359.59"/><polygon class="cls-4" points="189.18 363.81 181.16 386.73 202.48 381.94 210.01 359.59 189.18 363.81"/><polygon class="cls-16" points="191.11 363.42 208.98 358.81 209.49 359.7 191.11 363.42 191.11 363.42"/><polygon class="cls-16" points="209.28 359.38 205.69 352.75 202.45 360.81 209.01 359.3 209.28 359.38"/><path class="cls-13" d="M748,523.13c-.69-.14-2.18-.7-3.69-1.11a3.11,3.11,0,0,0,1.09-1.22c.27-.85.45-1.12-.45-.85s-4,1.7-4,1.7h0c-1.78.52-3.42,3-3.42,3s-22,7.74-24.7,7.88c-4.1.2-31.41-9.85-31.41-9.85-6.45,1.42-5,9.34-2.78,10.74s21.87,8.56,33.51,8.69c5.9.07,27.36-13.72,27.36-13.72a9.11,9.11,0,0,1,4.48-.79c2,.36,6.54,0,7.52-1.61S749.16,523.35,748,523.13Z" transform="translate(-552.66 -156)"/><path class="cls-2" d="M695.47,527.69a15,15,0,0,1-10.83,9.49s-13.85-4.27-7-13.71C677.68,523.47,684.5,518.41,695.47,527.69Z" transform="translate(-552.66 -156)"/><path class="cls-13" d="M762.31,523.71h0a2.26,2.26,0,0,0-.07-.63s-2-3.12-2.63-3.25c-2-.39-2,2.21-1.55,3.88a6.74,6.74,0,0,0,1.63,2.89h0l-.08,2.45A5.24,5.24,0,0,0,762.31,523.71Z" transform="translate(-552.66 -156)"/></g><path class="cls-9" d="M1182.49,459.23c7-17.82,11.21-30.83,12-47.61l-18.72,14.84s16.52-21.58,20.26-29.35c5.76-12,6.66-24,8-37.37l-16.48,17.6,13.49-20a23.73,23.73,0,0,0,4.06-12.26c.14-3.23.2-6.44.18-9.6a330.87,330.87,0,0,0-49.14,57.77l6.37,17.61-9.47-12.81a200.22,200.22,0,0,0-16.91,32.9c-.24.61-.44,1.2-.67,1.8,4.85,12,13,32.66,10.35,30.1-2.29-2.19-8.94-11.59-14-19.09-11.83,42.79,9.46,61.71,9.46,61.71a46.67,46.67,0,0,0,21.64-9.72c4.88-4.12,19.53-21,19.53-21H1171S1179.06,468,1182.49,459.23Z" transform="translate(-552.66 -156)"/><path class="cls-4" d="M1129.76,558.6l-12.71,20.16c.32-1.25,38-133.51,59.38-185.82l7.4-12.36c-21.31,52.07-53.75,176.77-54.07,178Z" transform="translate(-552.66 -156)"/><path class="cls-3" d="M1264.84,481c-8.19-8.21-14.38-13.7-23.5-18.21l3.69,14s-8-14.4-11.36-18.37c-5.24-6.09-11.71-9.52-18.78-13.52l5.76,13.41-7.8-12.33a14.34,14.34,0,0,0-5.81-5.22q-2.64-1.31-5.28-2.43a200,200,0,0,0,20.11,41.28l11.32.74-9.41,2.14a121.25,121.25,0,0,0,14.15,17.37l.83.81c7.81.21,21.28.7,19.21,1.56-1.77.74-8.6,2.14-14,3.11,20.87,17,36.53,9.74,36.53,9.74a28.29,28.29,0,0,0-.14-14.36c-1.1-3.71-6.88-15.92-6.88-15.92l-2.79,6.38S1268.86,485,1264.84,481Z" transform="translate(-552.66 -156)"/><path class="cls-2" d="M1307.16,534.34l8.1,11.95c-.62-.49-64.84-53.47-88.66-78l-5.06-7.11c23.71,24.47,85,72.73,85.62,73.21Z" transform="translate(-552.66 -156)"/><path class="cls-17" d="M546,410.81h47.94a8.22,8.22,0,0,1,8.22,8.22v0a29,29,0,0,1-29,29h-6.47a29,29,0,0,1-29-29v0a8.22,8.22,0,0,1,8.22-8.22Z"/><path class="cls-20" d="M1148.81,588.21v2.57a9.78,9.78,0,0,1-9.75,9.76h-33a9.79,9.79,0,0,1-9.76-9.76v-2.86a116.73,116.73,0,0,1,25.81.19A135.47,135.47,0,0,0,1148.81,588.21Z" transform="translate(-552.66 -156)"/><rect class="cls-17" x="552.94" y="405.75" width="34.32" height="6.37"/><path class="cls-17" d="M1141.6,561.75h-38.88a1.55,1.55,0,0,1-1.55-1.56h0a1.55,1.55,0,0,1,1.55-1.56h38.88a1.56,1.56,0,0,1,1.56,1.56h0A1.56,1.56,0,0,1,1141.6,561.75Z" transform="translate(-552.66 -156)"/><path class="cls-13" d="M883.73,363.33c.49-.24-.5-1.86-1.6-3.68,0-.09-.1-.18-.16-.27s-.29-.48-.43-.73c-1.29-2.19-1-3.22-.65-6.48.25-2.65,4.12-14.82,4.12-14.82l-5.62-1s-1.7,9.68-3.57,11.17c-1,.8-2.11.81-3.07,1.4l-.2.12c-.24.16,1.15,3,3.56,6.15C879.15,359.16,883.41,363.48,883.73,363.33Z" transform="translate(-552.66 -156)"/><path class="cls-20" d="M871,350.32a1.54,1.54,0,0,0-.28,1.66h0a12.1,12.1,0,0,0,3.27,3.57c.2.16.37.3.52.44l.12.11.09.08c1.43,1.32.89,1.62,3.47,4.31,2.93,3.05,5,3.11,5.53,2.83s-.5-1.86-1.6-3.68a12.55,12.55,0,0,1-5.23-3.86c-1.77-2.26-2.95-5.16-4.15-6.83l-.2.12A7.35,7.35,0,0,0,871,350.32Z" transform="translate(-552.66 -156)"/><path class="cls-13" d="M933.28,344.78c.11-.52-1.84-.71-3.92-.95l-.79-.09c-2.36-.3-4.09-1.82-6.23-3.07s-5.05-6-5.05-6l-5.4.43s2.83,4.3,3.93,6.18a6.47,6.47,0,0,1,.53,3.68c0,.26,3,1,6.59,1C927.64,346,933.21,345.11,933.28,344.78Z" transform="translate(-552.66 -156)"/><path class="cls-20" d="M922,347.58c2.77-.68,2.11.12,6-.31s5.13-1.91,5.25-2.49-1.84-.71-3.92-.95l0,0a11.08,11.08,0,0,1-5.64,1.76c-2.67.06-5.5-.7-7.35-.67a7.09,7.09,0,0,0,0,1.84C916.74,348.54,919.22,348.25,922,347.58Z" transform="translate(-552.66 -156)"/><path class="cls-20" d="M895.7,312.27l-5.05,13.59-6.59,17.73a10.5,10.5,0,0,1-3.51-.32,15.11,15.11,0,0,1-3.38-1.64s1.83-19.05,5.24-30a19.64,19.64,0,0,1,2.94-6.36C890.64,299,895.7,312.27,895.7,312.27Z" transform="translate(-552.66 -156)"/><path class="cls-21" d="M890.56,290.7c-3.3-1.07-12.74.3-22.21,2.16l-2-3.28L845.89,288s-6.75,15-3,24.53a3.46,3.46,0,0,0,3.46,2.33h16.44c10.18,0,21.54-7,23-7.29,2.41-.48,3.37,4.33,5.78,9.38s22.61,22.38,22.61,22.38a17.84,17.84,0,0,0,4.39-.45,4.39,4.39,0,0,0,1.89-1.19S898,293.1,890.56,290.7Z" transform="translate(-552.66 -156)"/><path class="cls-20" d="M865.56,230c-2.62-1.37-6.61-1.56-7.26-1.65-7.76-1-12.43,10.23-12.7,13.65-.51,6.29-3.84,7.25-8.52,11.19-9.4,7.91-6.65,17.09-1.51,20.51,3.09,2,8.52,0,8.52,0s14.86-8.26,22.15-12.27C877.17,259.84,872.24,233.49,865.56,230Z" transform="translate(-552.66 -156)"/><path class="cls-13" d="M860.13,258s-3.58,1.26-6,.18-4-4.75-4-4.75c1,0,2.17-.95,3.05-6.89l.44.16,7.41,2.66s-.53,2.38-.88,4.65C859.89,255.89,859.73,257.71,860.13,258Z" transform="translate(-552.66 -156)"/><path class="cls-14" d="M861.06,249.34a14.72,14.72,0,0,1-.64,3.22,8.07,8.07,0,0,1-6.77-5.88Z" transform="translate(-552.66 -156)"/><path class="cls-13" d="M862.17,251.71S852,250.34,853,244s.27-10.72,6.79-10.12,7.41,3.2,7.6,5.38S864.83,251.9,862.17,251.71Z" transform="translate(-552.66 -156)"/><path class="cls-20" d="M867,235.84s-6.49,5.6-10.9,6-6.09-1-6.09-1a17.28,17.28,0,0,0,4.17-5.65,3.09,3.09,0,0,1,2.56-1.83C859.88,233.17,865.86,233.05,867,235.84Z" transform="translate(-552.66 -156)"/><path class="cls-20" d="M862.94,235.34a15.88,15.88,0,0,1,2.85,3.66,12.21,12.21,0,0,1,.33,6.52s3.39-6.58,1.47-9.77C865.56,232.36,862.94,235.34,862.94,235.34Z" transform="translate(-552.66 -156)"/><path class="cls-2" d="M868.67,272.92c-.3,20.53-.08,16.24-2.33,18.19-.54.47-2.06.75-4.06.88-6.3.42-17.36-.62-17.78-1.78-1.46-4-.43-5.28-1.64-11.44-.13-.66-.28-1.37-.47-2.14-1-4.23-2-5.67,1.59-12.47,3.25-6.16,6.63-11.16,6.93-11,8.58,5.09,9.27.81,9.27.81S868.82,262.91,868.67,272.92Z" transform="translate(-552.66 -156)"/><path class="cls-21" d="M890.65,325.86l-6.59,17.73a10.5,10.5,0,0,1-3.51-.32,15.11,15.11,0,0,1-3.38-1.64s1.83-19.05,5.24-30Z" transform="translate(-552.66 -156)"/><path class="cls-2" d="M860.18,254s8.82,1.49,9.86,5.29,7.13,26.13,7.13,26.13-4.49.81-6.56-1.26-7.21-19.23-7.21-19.23Z" transform="translate(-552.66 -156)"/><path class="cls-17" d="M869.86,280.49s-.88-8.56-1.18-8.56-.91,8.56-.91,8.56Z" transform="translate(-552.66 -156)"/><path class="cls-17" d="M862.28,292c-6.3.42-17.36-.62-17.78-1.78-1.46-4-.43-5.28-1.64-11.44l3-8.55s-.5,9.52,2.31,12,11.5,4.84,12.86,6.93A7.67,7.67,0,0,1,862.28,292Z" transform="translate(-552.66 -156)"/><polygon class="cls-9" points="305.83 122.04 303.96 140.71 319.39 142.78 329.24 137.22 332.11 120.34 322.47 125.63 305.83 122.04"/><polygon class="cls-23" points="322.47 125.63 319.39 142.78 329.24 137.22 332.11 120.34 322.47 125.63"/><path class="cls-13" d="M853.62,287.93s4.63.27,5.51.83,3.07,1.76,2.43,2.08-2-.82-2-.37,2.81,2.2,3.91,2.51-2.38,1.39-4.1.47-2.06-1.93-2.71-2.36a11.79,11.79,0,0,0-3-.68Z" transform="translate(-552.66 -156)"/><path class="cls-2" d="M850.91,253.17s-8.34.52-11.23,4.54c-4.06,5.67-12.12,29.83-7.5,33.05,5.2,3.63,23.68.95,23.68.95s.61-2.88-.24-4.27-14.76-3.63-15.4-4.28,8-12.51,8-14.43S850.91,253.17,850.91,253.17Z" transform="translate(-552.66 -156)"/><path class="cls-16" d="M859.52,278.26l.66-1.59a19.81,19.81,0,0,0,6.48,1.16c2.89-.14,7.57,1.05,8,2.43a5.53,5.53,0,0,1,3.18-2.17,53.62,53.62,0,0,0,5.55-1.88l.93.36-9.21,5.06Z" transform="translate(-552.66 -156)"/><path class="cls-24" d="M604.1,603.37h19.51c1-1-.72-3.24-2.57-3.39a10.32,10.32,0,0,0-3,.39c-.26-4-1.8-21.93-7.58-21.21-6.5.8,0,7.9,1.84,12.1,1.36,3.11,2.8,7.57,3.45,9.68l-1.63.37c-.86-3-4.07-12.92-8.14-12.34-4.79.68-2.86,4.67.53,7,2.49,1.74,5.54,4.22,7,5.42a19.16,19.16,0,0,1-3.81.34C606.36,601.68,604.73,602.78,604.1,603.37Z" transform="translate(-552.66 -156)"/><path class="cls-24" d="M1296.17,603.37h-19.75c-1.06-1,.73-3.28,2.6-3.44a10.67,10.67,0,0,1,3,.4c.27-4,1.82-22.2,7.67-21.47,6.58.82,0,8-1.86,12.25-1.38,3.15-2.83,7.67-3.49,9.8.53.13,1.08.25,1.65.37.87-3,4.11-13.07,8.24-12.49,4.84.69,2.9,4.73-.54,7.13-2.52,1.76-5.61,4.27-7.08,5.48a19,19,0,0,0,3.86.35C1293.88,601.66,1295.53,602.77,1296.17,603.37Z" transform="translate(-552.66 -156)"/><path class="cls-24" d="M1204.38,578.79c1.63.69,7.45.14,7.63-.35s-3.61-5.12-5.24-5.81a3.13,3.13,0,0,0-4.14,1.83A3.38,3.38,0,0,0,1204.38,578.79Z" transform="translate(-552.66 -156)"/><path class="cls-24" d="M1219.06,581.7c-.92,1.57-1.33,7.66-.9,7.93s5.41-2.9,6.33-4.47a3.42,3.42,0,0,0-1.06-4.57A3.1,3.1,0,0,0,1219.06,581.7Z" transform="translate(-552.66 -156)"/><path class="cls-24" d="M1211.21,593.62c1.68.56,7.44-.46,7.59-1s-4-4.82-5.65-5.38a3.16,3.16,0,0,0-4,2.16A3.36,3.36,0,0,0,1211.21,593.62Z" transform="translate(-552.66 -156)"/><path class="cls-24" d="M1219.69,599.52c0-.14-.65-13.93-7.87-21l.15-.17c7.29,7.18,7.94,21.07,7.94,21.21Z" transform="translate(-552.66 -156)"/><path class="cls-24" d="M1243.79,579.09c-1,.71-5,1.17-5.23.87s1.78-4,2.79-4.71a2.15,2.15,0,0,1,3.06.65A2.36,2.36,0,0,1,1243.79,579.09Z" transform="translate(-552.66 -156)"/><path class="cls-24" d="M1234.21,583.19c.83.93,1.92,5,1.66,5.25s-4.06-1.19-4.89-2.12a2.38,2.38,0,0,1,.12-3.26A2.13,2.13,0,0,1,1234.21,583.19Z" transform="translate(-552.66 -156)"/><path class="cls-24" d="M1241.11,590.15c-1.06.62-5.1.76-5.27.44s2.06-3.84,3.12-4.47a2.16,2.16,0,0,1,3,.89A2.36,2.36,0,0,1,1241.11,590.15Z" transform="translate(-552.66 -156)"/><path class="cls-24" d="M1236.14,595.38c0-.1-1.4-9.55,2.56-15.43l-.13-.1c-4,5.94-2.6,15.46-2.58,15.55Z" transform="translate(-552.66 -156)"/><path class="cls-24" d="M1229,598.71l-.46-.07a152.11,152.11,0,0,0-9.06-42.29l.42-.19A152.74,152.74,0,0,1,1229,598.71Z" transform="translate(-552.66 -156)"/><path class="cls-16" d="M1214.62,553.89c.88,1,5,2.72,5.3,2.46s-.8-4.75-1.68-5.8a2.34,2.34,0,0,0-3.4-.22A2.6,2.6,0,0,0,1214.62,553.89Z" transform="translate(-552.66 -156)"/><path class="cls-16" d="M1221,550.25c-.8,1.12-1.52,5.69-1.21,5.92s4.28-1.79,5.08-2.91a2.62,2.62,0,0,0-.49-3.53A2.35,2.35,0,0,0,1221,550.25Z" transform="translate(-552.66 -156)"/><path class="cls-16" d="M1225.7,555.11c-1.29-.37-5.62.6-5.72,1s3.16,3.52,4.45,3.88a2.39,2.39,0,0,0,3-1.77A2.53,2.53,0,0,0,1225.7,555.11Z" transform="translate(-552.66 -156)"/><path class="cls-16" d="M1222.77,561.17c-.13-1.39-2.53-5.28-2.91-5.25s-2,4.34-1.89,5.73a2.45,2.45,0,0,0,2.63,2.27A2.5,2.5,0,0,0,1222.77,561.17Z" transform="translate(-552.66 -156)"/><path class="cls-16" d="M1216.2,560.87c1.18-.65,3.72-4.44,3.54-4.8s-4.6-.32-5.78.33a2.58,2.58,0,0,0-1,3.41A2.36,2.36,0,0,0,1216.2,560.87Z" transform="translate(-552.66 -156)"/><path class="cls-8" d="M1219,555.94a.81.81,0,0,1,.91-.69.83.83,0,0,1,.66,1,.79.79,0,0,1-.91.69A.82.82,0,0,1,1219,555.94Z" transform="translate(-552.66 -156)"/><path class="cls-24" d="M1228.86,573.69c-1.31,1.68-2.72,8.75-2.26,9.14s6.79-2.5,8.1-4.18a4,4,0,0,0-.55-5.53A3.64,3.64,0,0,0,1228.86,573.69Z" transform="translate(-552.66 -156)"/><path class="cls-24" d="M1192,578.35a115.44,115.44,0,0,1,8.23,19.47l-.47-.12a115.78,115.78,0,0,0-8.08-19.13Z" transform="translate(-552.66 -156)"/><path class="cls-16" d="M1187.19,577c.88.8,4.66,1.77,4.88,1.5s-1.22-4-2.1-4.84a2.05,2.05,0,0,0-3,.21A2.28,2.28,0,0,0,1187.19,577Z" transform="translate(-552.66 -156)"/><path class="cls-16" d="M1192.29,573.07c-.57,1.07-.69,5.13-.4,5.3s3.53-2.08,4.1-3.14a2.28,2.28,0,0,0-.81-3A2.08,2.08,0,0,0,1192.29,573.07Z" transform="translate(-552.66 -156)"/><path class="cls-16" d="M1197,576.73c-1.16-.17-4.82,1.2-4.87,1.54s3.15,2.68,4.31,2.85a2.15,2.15,0,0,0,2.38-1.9A2.2,2.2,0,0,0,1197,576.73Z" transform="translate(-552.66 -156)"/><path class="cls-16" d="M1195.08,582.35c-.26-1.19-2.78-4.29-3.11-4.21s-1.28,4-1,5.21a2.11,2.11,0,0,0,2.54,1.66A2.22,2.22,0,0,0,1195.08,582.35Z" transform="translate(-552.66 -156)"/><path class="cls-16" d="M1189.33,582.88c1-.7,2.75-4.31,2.56-4.6s-4.05.28-5,1a2.27,2.27,0,0,0-.5,3.08A2.05,2.05,0,0,0,1189.33,582.88Z" transform="translate(-552.66 -156)"/><path class="cls-8" d="M1191.19,578.26a.7.7,0,0,1,.71-.7.73.73,0,1,1-.71.7Z" transform="translate(-552.66 -156)"/><path class="cls-24" d="M1199,586.33c-.73,1.26-1.08,6.12-.74,6.34s4.34-2.3,5.07-3.55a2.72,2.72,0,0,0-.83-3.66A2.48,2.48,0,0,0,1199,586.33Z" transform="translate(-552.66 -156)"/><path class="cls-24" d="M1254.15,599.09l.51-.08c2-26.76,9.79-46,9.9-46.22l-.46-.2C1264,552.85,1256.12,572.18,1254.15,599.09Z" transform="translate(-552.66 -156)"/><path class="cls-16" d="M1269.86,550.1c-1,1.14-5.48,3-5.79,2.69s.87-5.2,1.83-6.34a2.57,2.57,0,0,1,3.73-.24A2.85,2.85,0,0,1,1269.86,550.1Z" transform="translate(-552.66 -156)"/><path class="cls-16" d="M1262.94,546.12c.87,1.22,1.66,6.22,1.33,6.48s-4.69-2-5.56-3.18a2.85,2.85,0,0,1,.54-3.86A2.56,2.56,0,0,1,1262.94,546.12Z" transform="translate(-552.66 -156)"/><path class="cls-16" d="M1257.75,551.43c1.41-.4,6.14.66,6.25,1.08s-3.46,3.84-4.86,4.24a2.62,2.62,0,0,1-3.24-1.93A2.78,2.78,0,0,1,1257.75,551.43Z" transform="translate(-552.66 -156)"/><path class="cls-16" d="M1261,558.05c.14-1.51,2.77-5.77,3.18-5.72s2.21,4.74,2.07,6.25a2.67,2.67,0,0,1-2.88,2.48A2.72,2.72,0,0,1,1261,558.05Z" transform="translate(-552.66 -156)"/><path class="cls-16" d="M1268.13,557.73c-1.29-.71-4.06-4.86-3.87-5.24s5-.35,6.33.36a2.82,2.82,0,0,1,1.1,3.72A2.58,2.58,0,0,1,1268.13,557.73Z" transform="translate(-552.66 -156)"/><path class="cls-8" d="M1265.12,552.35a.88.88,0,0,0-1-.76.91.91,0,0,0-.72,1,.89.89,0,0,0,1,.76A.91.91,0,0,0,1265.12,552.35Z" transform="translate(-552.66 -156)"/><path class="cls-24" d="M1253,578.9c1.43,1.84,3,9.57,2.47,10s-7.42-2.73-8.85-4.57a4.43,4.43,0,0,1,.59-6.05A4,4,0,0,1,1253,578.9Z" transform="translate(-552.66 -156)"/><path class="cls-24" d="M1261.33,580.65c-2,1.09-6.4,7.52-6.1,8.12s7.85.62,9.87-.47a4.4,4.4,0,0,0,1.77-5.79A4,4,0,0,0,1261.33,580.65Z" transform="translate(-552.66 -156)"/><path class="cls-24" d="M1186.44,602.9s2.31-6.36,10.71-6.76,14.18,4.79,21.12,2.4,18.42-7.8,29.28-4.2,12.7,8.56,12.7,8.56Z" transform="translate(-552.66 -156)"/><rect class="cls-20" y="447.11" width="799.34" height="2.12" rx="1.06"/></svg>